#!OML:ASF I:\Actors\actors\Patient Classification 2\Patient 1\Session 1\actor1.ASF
:FULLY-SPECIFIED
:DEGREES
725
root -0.420121 17.937 4.48112 20.4187 6.40734 -3.48348
lowerback 19.3825 0.847374 2.95754
upperback -3.78907 1.72839 -1.05369
thorax -15.185 0.447412 -3.44399
lowerneck -9.46735 15.9888 14.5163
upperneck -4.91285 19.9868 -13.049
head 2.73731 9.66745 -4.68775
rclavicle -2.44505e-014 -2.06736e-014
rhumerus -52.9751 6.4223 -93.0006
rradius 121.888
rwrist 18.9865
rhand -5.11366 -50.1
rfingers 7.12502
rthumb 20.6842 -79.0178
lclavicle -2.44505e-014 -2.06736e-014
lhumerus -44.6237 -18.8159 96.9357
lradius 127.993
lwrist -11.5392
lhand 21.504 -0.939715
lfingers 7.12502
lthumb 45.9335 22.1825
rfemur -38.2191 -18.1793 22.28
rtibia 37.6339
rfoot -19.3143 2.97163
rtoes -13.6639
lfemur -48.822 9.02638 -13.9078
ltibia 48.6937
lfoot -18.7952 -5.26754
ltoes -55.6698
726
root -0.424974 17.9154 4.45681 20.6098 6.26988 -3.38385
lowerback 19.2931 0.782771 2.93907
upperback -3.6748 1.63386 -1.04353
thorax -15.0019 0.413827 -3.3854
lowerneck -9.61937 15.6432 14.2091
upperneck -3.92845 19.5764 -12.4155
head 2.9062 9.46565 -4.47415
rclavicle 2.127e-014 -4.37326e-015
rhumerus -52.8619 6.48413 -92.9902
rradius 121.967
rwrist 18.955
rhand -5.12853 -49.8649
rfingers 7.12502
rthumb 20.6699 -78.7842
lclavicle 2.127e-014 -4.37326e-015
lhumerus -44.5511 -18.7422 96.8928
lradius 128.024
lwrist -11.4589
lhand 21.2897 -0.775718
lfingers 7.12502
lthumb 45.7346 22.4285
rfemur -38.8292 -18.0605 22.2185
rtibia 38.2327
rfoot -19.5048 3.07121
rtoes -13.4435
lfemur -49.2679 9.12988 -14.0823
ltibia 49.0003
lfoot -18.7904 -5.28404
ltoes -55.6162
727
root -0.432151 17.8913 4.43029 20.8558 6.1049 -3.24941
lowerback 19.2182 0.736703 2.83766
upperback -3.58254 1.54489 -1.03083
thorax -14.8558 0.388633 -3.27984
lowerneck -10.1033 15.16 13.6239
upperneck -2.60498 18.9702 -11.4455
head 3.14851 9.16545 -4.11839
rclavicle -2.18663e-014 1.23246e-014
rhumerus -52.8203 6.47644 -92.9082
rradius 122.072
rwrist 18.9051
rhand -5.13809 -49.7389
rfingers 7.12502
rthumb 20.6607 -78.6592
lclavicle -2.18663e-014 1.23246e-014
lhumerus -44.5555 -18.6695 96.8268
lradius 128.076
lwrist -11.4271
lhand 21.1034 -0.69796
lfingers 7.12502
lthumb 45.5616 22.5769
rfemur -39.5275 -17.9445 22.1382
rtibia 38.8541
rfoot -19.678 3.18932
rtoes -13.2543
lfemur -49.7884 9.28959 -14.3243
ltibia 49.3129
lfoot -18.7817 -5.35714
ltoes -55.54
728
root -0.437757 17.8666 4.40196 21.144 5.91012 -3.0911
lowerback 19.1715 0.704597 2.71329
upperback -3.51064 1.47037 -1.01811
thorax -14.7503 0.370256 -3.16751
lowerneck -10.4524 14.5396 13.1414
upperneck -1.40139 18.185 -10.7016
head 3.36096 8.77949 -3.8739
rclavicle -1.59028e-014 -1.03368e-014
rhumerus -52.8265 6.41533 -92.851
rradius 122.157
rwrist 18.7969
rhand -5.38842 -49.9075
rfingers 7.12502
rthumb 20.4202 -78.8537
lclavicle -1.59028e-014 -1.03368e-014
lhumerus -44.5223 -18.5867 96.7738
lradius 128.094
lwrist -11.4394
lhand 21.0998 -0.701266
lfingers 7.12502
lthumb 45.5582 22.575
rfemur -40.2825 -17.8528 22.0466
rtibia 39.4599
rfoot -19.774 3.32655
rtoes -13.1801
lfemur -50.3667 9.53533 -14.647
ltibia 49.6197
lfoot -18.7636 -5.49191
ltoes -55.4518
729
root -0.440368 17.8437 4.37402 21.4198 5.75058 -3.00478
lowerback 19.1563 0.654755 2.68846
upperback -3.43583 1.40226 -0.973211
thorax -14.6586 0.347399 -3.07856
lowerneck -9.93809 13.8937 13.3794
upperneck -0.953899 17.3947 -10.9245
head 3.37921 8.39498 -4.08186
rclavicle 2.70347e-014 -5.56597e-015
rhumerus -52.8352 6.30698 -92.856
rradius 122.152
rwrist 18.8189
rhand -5.5985 -49.9621
rfingers 7.12502
rthumb 20.2183 -78.9299
lclavicle 2.70347e-014 -5.56597e-015
lhumerus -44.4968 -18.4998 96.753
lradius 128.105
lwrist -11.4696
lhand 21.1356 -0.707859
lfingers 7.12502
lthumb 45.5915 22.5549
rfemur -41.0128 -17.8109 22.0511
rtibia 40.0272
rfoot -19.8646 3.46169
rtoes -13.306
lfemur -50.9294 9.75701 -14.8896
ltibia 49.9155
lfoot -18.7696 -5.59392
ltoes -55.424
730
root -0.440279 17.824 4.34605 21.653 5.66525 -2.96646
lowerback 19.1375 0.527616 2.57857
upperback -3.31746 1.22877 -0.787988
thorax -14.5249 0.293426 -2.74798
lowerneck -9.72841 13.284 13.2606
upperneck -0.296674 16.6524 -10.8485
head 3.44986 8.03297 -4.12326
rclavicle 1.85864e-014 -1.31198e-014
rhumerus -52.7981 6.48827 -92.771
rradius 122.068
rwrist 18.8593
rhand -5.27936 -49.8648
rfingers 7.12502
rthumb 20.525 -78.7998
lclavicle 1.85864e-014 -1.31198e-014
lhumerus -44.4885 -18.1611 96.7432
lradius 128.167
lwrist -11.5769
lhand 21.2842 -0.71324
lfingers 7.12502
lthumb 45.7294 22.4931
rfemur -41.6809 -17.9111 22.149
rtibia 40.5393
rfoot -19.8646 3.64205
rtoes -13.5742
lfemur -51.4432 9.89785 -15.0507
ltibia 50.1964
lfoot -18.7943 -5.65579
ltoes -55.4195
731
root -0.438593 17.804 4.31594 21.9149 5.60171 -2.91109
lowerback 19.0225 0.396107 2.30823
upperback -3.10136 1.02457 -0.473098
thorax -14.2228 0.249879 -2.16686
lowerneck -10.9804 12.5553 11.8746
upperneck 1.33311 15.7061 -9.5003
head 3.80931 7.55944 -3.5261
rclavicle -6.36111e-015 -7.15625e-015
rhumerus -52.582 6.90863 -92.4909
rradius 121.954
rwrist 18.7974
rhand -5.11418 -49.9532
rfingers 7.12502
rthumb 20.6837 -78.8711
lclavicle -6.36111e-015 -7.15625e-015
lhumerus -44.2664 -17.6909 96.8082
lradius 128.202
lwrist -11.7239
lhand 21.4697 -0.74621
lfingers 7.12502
lthumb 45.9017 22.3892
rfemur -42.37 -18.0919 22.2674
rtibia 40.9854
rfoot -19.7627 3.87233
rtoes -13.6343
lfemur -52.0032 9.99582 -15.2269
ltibia 50.4589
lfoot -18.7732 -5.69139
ltoes -55.3684
732
root -0.439526 17.7852 4.2861 22.222 5.51074 -2.81451
lowerback 19.1357 0.360374 2.46203
upperback -3.04388 1.01703 -0.466942
thorax -14.2211 0.234426 -2.24684
lowerneck -12.2142 11.6458 10.5184
upperneck 2.89587 14.5179 -8.03565
head 4.14752 6.97998 -2.92735
rclavicle 6.16232e-015 1.98785e-015
rhumerus -52.6544 6.60648 -92.4338
rradius 121.878
rwrist 18.8315
rhand -5.34822 -50.0331
rfingers 7.12502
rthumb 20.4588 -78.9752
lclavicle 6.16232e-015 1.98785e-015
lhumerus -44.2896 -17.9127 96.853
lradius 128.176
lwrist -11.7754
lhand 21.4478 -0.858078
lfingers 7.12502
lthumb 45.8814 22.2857
rfemur -43.0715 -18.2127 22.3388
rtibia 41.3718
rfoot -19.6956 4.05683
rtoes -13.522
lfemur -52.5919 10.0641 -15.4361
ltibia 50.6983
lfoot -18.7331 -5.694
ltoes -55.279
733
root -0.44281 17.7723 4.25785 22.4124 5.44495 -2.7394
lowerback 19.4464 0.296167 2.62681
upperback -3.01867 0.977782 -0.48095
thorax -14.3772 0.198655 -2.35077
lowerneck -12.9528 10.7339 9.5643
upperneck 4.04303 13.3405 -7.02395
head 4.37844 6.41196 -2.55171
rclavicle 2.09718e-014 -1.66979e-014
rhumerus -52.8257 6.31199 -92.4859
rradius 121.825
rwrist 18.8877
rhand -5.27875 -49.998
rfingers 7.12502
rthumb 20.5256 -78.933
lclavicle 2.09718e-014 -1.66979e-014
lhumerus -44.4596 -18.1431 96.8788
lradius 128.186
lwrist -11.8435
lhand 21.2815 -0.933296
lfingers 7.12502
lthumb 45.727 22.2741
rfemur -43.5898 -18.292 22.38
rtibia 41.7123
rfoot -19.6941 4.16356
rtoes -13.6854
lfemur -53.0214 10.1167 -15.596
ltibia 50.9175
lfoot -18.7272 -5.6593
ltoes -55.2962
734
root -0.443172 17.7601 4.23355 22.5934 5.29559 -2.73509
lowerback 19.6715 0.228587 2.66823
upperback -2.97573 0.911656 -0.423046
thorax -14.4654 0.166727 -2.29184
lowerneck -13.5239 9.87317 8.71059
upperneck 5.02549 12.2355 -6.11791
head 4.57464 5.88477 -2.2231
rclavicle 1.02374e-014 -1.13307e-014
rhumerus -52.9808 6.28091 -92.5155
rradius 121.789
rwrist 18.9041
rhand -5.08907 -49.9182
rfingers 7.12502
rthumb 20.7078 -78.8334
lclavicle 1.02374e-014 -1.13307e-014
lhumerus -44.5762 -18.1625 96.8705
lradius 128.185
lwrist -11.8503
lhand 21.1244 -1.09842
lfingers 7.12502
lthumb 45.581 22.1685
rfemur -44.073 -18.253 22.4441
rtibia 42.0147
rfoot -19.6877 4.25137
rtoes -13.9529
lfemur -53.4162 10.2784 -15.7228
ltibia 51.1281
lfoot -18.7691 -5.58009
ltoes -55.4804
